<svg aria-hidden="true" style="position: absolute; width: 0; height: 0; overflow: hidden;" version="1.1" xmlns="http://www.w3.org/2000/svg" xmlns:xlink="http://www.w3.org/1999/xlink">
<defs>
<symbol id="icon-twitter-white" viewBox="0 0 32 32">
<path  d="M32 6.080c-1.19 0.52-2.46 0.87-3.78 1.030 1.361-0.814 2.384-2.074 2.877-3.574l0.013-0.046c-1.197 0.723-2.591 1.275-4.076 1.576l-0.084 0.014c-1.202-1.286-2.909-2.087-4.803-2.087-3.628 0-6.57 2.942-6.57 6.57 0 0.531 0.063 1.047 0.182 1.542l-0.009-0.045c-5.467-0.277-10.276-2.877-13.493-6.826l-0.027-0.034c-0.563 0.948-0.895 2.091-0.895 3.311 0 2.266 1.147 4.264 2.892 5.445l0.023 0.015c-1.094-0.030-2.113-0.326-3.002-0.827l0.032 0.017v0.070c0.007 3.163 2.241 5.802 5.217 6.432l0.043 0.008c-0.51 0.142-1.095 0.224-1.7 0.224-0.449 0-0.888-0.045-1.312-0.132l0.042 0.007c0.869 2.628 3.271 4.505 6.121 4.58l0.009 0c-2.214 1.743-5.042 2.796-8.116 2.796-0.558 0-1.108-0.035-1.648-0.102l0.064 0.007c2.829 1.85 6.293 2.95 10.014 2.95 0.016 0 0.033-0 0.049-0h-0.003c12.080 0 18.68-10 18.68-18.67 0-0.29-0.010-0.57-0.030-0.85 1.3-0.92 2.4-2.070 3.29-3.4z"></path>
</symbol>
<symbol id="icon-twitter" viewBox="0 0 32 32">
<path  d="M32 6.080c-1.19 0.52-2.46 0.87-3.78 1.030 1.361-0.814 2.384-2.074 2.877-3.574l0.013-0.046c-1.197 0.723-2.591 1.275-4.076 1.576l-0.084 0.014c-1.202-1.286-2.909-2.087-4.803-2.087-3.628 0-6.57 2.942-6.57 6.57 0 0.531 0.063 1.047 0.182 1.542l-0.009-0.045c-5.467-0.277-10.276-2.877-13.493-6.826l-0.027-0.034c-0.563 0.948-0.895 2.091-0.895 3.311 0 2.266 1.147 4.264 2.892 5.445l0.023 0.015c-1.094-0.030-2.113-0.326-3.002-0.827l0.032 0.017v0.070c0.007 3.163 2.241 5.802 5.217 6.432l0.043 0.008c-0.51 0.142-1.095 0.224-1.7 0.224-0.449 0-0.888-0.045-1.312-0.132l0.042 0.007c0.869 2.628 3.271 4.505 6.121 4.58l0.009 0c-2.214 1.743-5.042 2.796-8.116 2.796-0.558 0-1.108-0.035-1.648-0.102l0.064 0.007c2.829 1.85 6.293 2.95 10.014 2.95 0.016 0 0.033-0 0.049-0h-0.003c12.080 0 18.68-10 18.68-18.67 0-0.29-0.010-0.57-0.030-0.85 1.3-0.92 2.4-2.070 3.29-3.4z"></path>
</symbol>
<symbol id="icon-smartphone" viewBox="0 0 32 32">
<path  d="M23 0h-14c-1.657 0-3 1.343-3 3v0 26c0 1.657 1.343 3 3 3v0h14c1.657 0 3-1.343 3-3v0-26c0-1.657-1.343-3-3-3v0zM9 2h14c0.552 0 1 0.448 1 1v0 21h-16v-21c0-0.552 0.448-1 1-1v0zM23 30h-14c-0.552 0-1-0.448-1-1v0-3h16v3c0 0.552-0.448 1-1 1v0z"></path>
<path  d="M10.7 27.48c0.4 0.36 0.4 0.95 0 1.32s-1.020 0.36-1.4 0c-0.4-0.37-0.4-0.96 0-1.32s1.020-0.37 1.4 0z"></path>
</symbol>
<symbol id="icon-linkedin-white" viewBox="0 0 32 32">
<path  d="M32 32v-11.74c0-5.74-1.24-10.16-7.95-10.16-3.23 0-5.39 1.77-6.27 3.45h-0.1v-2.92h-6.36v21.37h6.63v-10.58c0-2.79 0.52-5.48 3.97-5.48 3.4 0 3.45 3.18 3.45 5.66v10.4h6.63zM0.53 10.64h6.63v21.36h-6.63v-21.36zM3.84 0c-2.12 0-3.84 1.72-3.84 3.84s1.72 3.88 3.84 3.88c2.134-0.011 3.86-1.744 3.86-3.88 0-0 0-0 0-0v0c-0.006-2.122-1.727-3.84-3.85-3.84-0.004 0-0.007 0-0.011 0h0.001z"></path>
</symbol>
<symbol id="icon-linkedin" viewBox="0 0 32 32">
<path  d="M32 32v-11.74c0-5.74-1.24-10.16-7.95-10.16-3.23 0-5.39 1.77-6.27 3.45h-0.1v-2.92h-6.36v21.37h6.63v-10.58c0-2.79 0.52-5.48 3.97-5.48 3.4 0 3.45 3.18 3.45 5.66v10.4h6.63zM0.53 10.64h6.63v21.36h-6.63v-21.36zM3.84 0c-2.12 0-3.84 1.72-3.84 3.84s1.72 3.88 3.84 3.88c2.134-0.011 3.86-1.744 3.86-3.88 0-0 0-0 0-0v0c-0.006-2.122-1.727-3.84-3.85-3.84-0.004 0-0.007 0-0.011 0h0.001z"></path>
</symbol>
<symbol id="icon-instagram-white" viewBox="0 0 32 32">
<path  d="M31.97 9.4c-0.028-1.397-0.297-2.723-0.767-3.95l0.027 0.080c-0.426-1.113-1.059-2.060-1.858-2.838l-0.002-0.002c-0.779-0.794-1.723-1.423-2.776-1.832l-0.054-0.018c-1.020-0.39-2.18-0.67-3.88-0.74-1.71-0.080-2.26-0.1-6.6-0.1s-4.89 0.020-6.6 0.1c-1.7 0.060-2.86 0.33-3.88 0.73-1.112 0.423-2.060 1.053-2.839 1.849l-0.001 0.001c-0.791 0.782-1.417 1.729-1.822 2.786l-0.018 0.054c-0.4 1.020-0.67 2.18-0.74 3.88-0.080 1.71-0.1 2.26-0.1 6.6s0.020 4.9 0.090 6.6c0.080 1.7 0.35 2.87 0.74 3.88 0.427 1.111 1.056 2.058 1.849 2.839l0.001 0.001c0.8 0.81 1.77 1.44 2.84 1.84 1.020 0.4 2.18 0.67 3.88 0.75 1.7 0.070 2.25 0.090 6.6 0.090s4.88-0.020 6.59-0.1c1.401-0.027 2.73-0.296 3.96-0.767l-0.080 0.027c2.156-0.849 3.831-2.524 4.661-4.625l0.019-0.055c0.4-1.020 0.67-2.18 0.75-3.88 0.070-1.7 0.090-2.25 0.090-6.6s0-4.89-0.080-6.6zM29.090 22.47c-0.011 1.069-0.212 2.089-0.57 3.030l0.020-0.060c-0.551 1.401-1.639 2.489-3.004 3.027l-0.036 0.013c-0.56 0.22-1.41 0.48-2.97 0.55-1.69 0.070-2.2 0.1-6.46 0.1s-4.79-0.020-6.47-0.1c-1.069-0.011-2.089-0.212-3.030-0.57l0.060 0.020c-0.722-0.271-1.337-0.68-1.839-1.199l-0.001-0.001c-0.514-0.502-0.92-1.113-1.179-1.796l-0.011-0.034c-0.337-0.881-0.538-1.9-0.55-2.965l-0-0.005c-0.070-1.69-0.1-2.2-0.1-6.47s0.030-4.78 0.1-6.46c0.070-1.56 0.33-2.4 0.55-2.97 0.26-0.7 0.66-1.32 1.2-1.84 0.505-0.515 1.119-0.921 1.806-1.179l0.034-0.011c0.878-0.336 1.894-0.537 2.954-0.55l0.006-0c1.69-0.070 2.2-0.1 6.46-0.1 4.28 0 4.78 0.030 6.47 0.1 1.56 0.070 2.4 0.33 2.96 0.55 0.7 0.26 1.33 0.66 1.84 1.2 0.53 0.51 0.94 1.14 1.2 1.83 0.22 0.57 0.48 1.42 0.55 2.97 0.070 1.69 0.1 2.2 0.1 6.46s-0.030 4.77-0.1 6.46z"></path>
<path  d="M16.060 7.78c-4.543 0-8.225 3.682-8.225 8.225s3.682 8.225 8.225 8.225v0c4.543 0 8.225-3.682 8.225-8.225s-3.682-8.225-8.225-8.225v0zM16.060 21.33c-2.944 0-5.33-2.386-5.33-5.33s2.386-5.33 5.33-5.33v0c2.946 0 5.335 2.389 5.335 5.335s-2.389 5.335-5.335 5.335v0zM26.52 7.46c0.003 0.041 0.005 0.090 0.005 0.138 0 1.060-0.86 1.92-1.92 1.92s-1.92-0.86-1.92-1.92c0-0.049 0.002-0.097 0.005-0.145l-0 0.006c0.074-0.999 0.903-1.782 1.915-1.782s1.841 0.782 1.915 1.775l0 0.006z"></path>
</symbol>
<symbol id="icon-instagram" viewBox="0 0 32 32">
<path  d="M31.97 9.4c-0.028-1.397-0.297-2.723-0.767-3.95l0.027 0.080c-0.426-1.113-1.059-2.060-1.858-2.838l-0.002-0.002c-0.779-0.794-1.723-1.423-2.776-1.832l-0.054-0.018c-1.020-0.39-2.18-0.67-3.88-0.74-1.71-0.080-2.26-0.1-6.6-0.1s-4.89 0.020-6.6 0.1c-1.7 0.060-2.86 0.33-3.88 0.73-1.112 0.423-2.060 1.053-2.839 1.849l-0.001 0.001c-0.791 0.782-1.417 1.729-1.822 2.786l-0.018 0.054c-0.4 1.020-0.67 2.18-0.74 3.88-0.080 1.71-0.1 2.26-0.1 6.6s0.020 4.9 0.090 6.6c0.080 1.7 0.35 2.87 0.74 3.88 0.427 1.111 1.056 2.058 1.849 2.839l0.001 0.001c0.8 0.81 1.77 1.44 2.84 1.84 1.020 0.4 2.18 0.67 3.88 0.75 1.7 0.070 2.25 0.090 6.6 0.090s4.88-0.020 6.59-0.1c1.401-0.027 2.73-0.296 3.96-0.767l-0.080 0.027c2.156-0.849 3.831-2.524 4.661-4.625l0.019-0.055c0.4-1.020 0.67-2.18 0.75-3.88 0.070-1.7 0.090-2.25 0.090-6.6s0-4.89-0.080-6.6zM29.090 22.47c-0.011 1.069-0.212 2.089-0.57 3.030l0.020-0.060c-0.551 1.401-1.639 2.489-3.004 3.027l-0.036 0.013c-0.56 0.22-1.41 0.48-2.97 0.55-1.69 0.070-2.2 0.1-6.46 0.1s-4.79-0.020-6.47-0.1c-1.069-0.011-2.089-0.212-3.030-0.57l0.060 0.020c-0.722-0.271-1.337-0.68-1.839-1.199l-0.001-0.001c-0.514-0.502-0.92-1.113-1.179-1.796l-0.011-0.034c-0.337-0.881-0.538-1.9-0.55-2.965l-0-0.005c-0.070-1.69-0.1-2.2-0.1-6.47s0.030-4.78 0.1-6.46c0.070-1.56 0.33-2.4 0.55-2.97 0.26-0.7 0.66-1.32 1.2-1.84 0.505-0.515 1.119-0.921 1.806-1.179l0.034-0.011c0.878-0.336 1.894-0.537 2.954-0.55l0.006-0c1.69-0.070 2.2-0.1 6.46-0.1 4.28 0 4.78 0.030 6.47 0.1 1.56 0.070 2.4 0.33 2.96 0.55 0.7 0.26 1.33 0.66 1.84 1.2 0.53 0.51 0.94 1.14 1.2 1.83 0.22 0.57 0.48 1.42 0.55 2.97 0.070 1.69 0.1 2.2 0.1 6.46s-0.030 4.77-0.1 6.46z"></path>
<path  d="M16.060 7.78c-4.543 0-8.225 3.682-8.225 8.225s3.682 8.225 8.225 8.225v0c4.543 0 8.225-3.682 8.225-8.225s-3.682-8.225-8.225-8.225v0zM16.060 21.33c-2.944 0-5.33-2.386-5.33-5.33s2.386-5.33 5.33-5.33v0c2.946 0 5.335 2.389 5.335 5.335s-2.389 5.335-5.335 5.335v0zM26.52 7.46c0.003 0.041 0.005 0.090 0.005 0.138 0 1.060-0.86 1.92-1.92 1.92s-1.92-0.86-1.92-1.92c0-0.049 0.002-0.097 0.005-0.145l-0 0.006c0.074-0.999 0.903-1.782 1.915-1.782s1.841 0.782 1.915 1.775l0 0.006z"></path>
</symbol>
<symbol id="icon-facebook-white" viewBox="0 0 32 32">
<path  d="M21.33 5.31h2.92v-5.080c-0.5-0.080-2.24-0.23-4.26-0.23-4.2 0-7.1 2.65-7.1 7.52v4.48h-4.63v5.69h4.65v14.31h5.7v-14.31h4.46l0.7-5.69h-5.17v-3.92c0-1.64 0.45-2.77 2.74-2.77z"></path>
</symbol>
<symbol id="icon-facebook" viewBox="0 0 32 32">
<path  d="M21.33 5.31h2.92v-5.080c-0.5-0.080-2.24-0.23-4.26-0.23-4.2 0-7.1 2.65-7.1 7.52v4.48h-4.63v5.69h4.65v14.31h5.7v-14.31h4.46l0.7-5.69h-5.17v-3.92c0-1.64 0.45-2.77 2.74-2.77z"></path>
</symbol>
<symbol id="icon-envelope" viewBox="0 0 32 32">
<path  d="M29 4h-26c-1.657 0-3 1.343-3 3v0 18c0 1.657 1.343 3 3 3v0h26c1.657 0 3-1.343 3-3v0-18c0-1.657-1.343-3-3-3v0zM29 6c0.138 0.002 0.268 0.031 0.386 0.082l-0.006-0.003-13.38 11.6-13.38-11.6c0.112-0.049 0.242-0.078 0.379-0.080h26.001zM29 26h-26c-0.552 0-1-0.448-1-1v0-16.81l13.35 11.57c0.174 0.149 0.401 0.24 0.65 0.24s0.476-0.091 0.651-0.241l-0.001 0.001 13.35-11.57v16.81c0 0.552-0.448 1-1 1v0z"></path>
</symbol>
<symbol id="icon-diagram" viewBox="0 0 32 32">
<path fill="#2196f3" style="fill: var(--color4, #2196f3)" d="M14.93 14.96h1.060v4.8h-1.060v-4.8zM19.19 17.1h1.070v2.66h-1.070v-2.66zM10.66 18.7h1.070v1.060h-1.070v-1.060zM7.46 18.16h1.070v1.6h-1.070v-1.6z"></path>
<path fill="#212121" style="fill: var(--color5, #212121)" d="M1.6 28.3h25.59c0.88 0 1.6-0.73 1.6-1.6v-2.14c0-0.88-0.72-1.6-1.6-1.6h-0.54v-13.3l3.030-2.86c0.204 0.101 0.444 0.161 0.699 0.161 0.884 0 1.6-0.716 1.6-1.6s-0.716-1.6-1.6-1.6c-0.884 0-1.6 0.716-1.6 1.6 0 0.247 0.056 0.48 0.156 0.689l-0.004-0.010-2.28 2.16v-1.23c0-0.88-0.71-1.6-1.6-1.6h-21.32c-0.88 0-1.6 0.72-1.6 1.6v16h-0.53c-0.88 0-1.6 0.7-1.6 1.6v2.12c0 0.89 0.72 1.6 1.6 1.6zM30.38 4.83c0.293 0 0.53 0.237 0.53 0.53s-0.237 0.53-0.53 0.53v0c-0.293 0-0.53-0.237-0.53-0.53s0.237-0.53 0.53-0.53v0zM3.2 6.97c0-0.3 0.24-0.53 0.53-0.53h21.32c0.3 0 0.54 0.23 0.54 0.53v2.23l-1.070 1.010v-2.18c0-0.29-0.24-0.53-0.53-0.53h-19.2c-0.29 0-0.53 0.24-0.53 0.53v13.33c0 0.3 0.24 0.53 0.54 0.53h19.19c0.3 0 0.53-0.23 0.53-0.53v-9.66l1.070-1.010v12.28h-22.4v-16zM8 13.9c-0.004-0-0.008-0-0.012-0-0.884 0-1.6 0.716-1.6 1.6s0.716 1.6 1.6 1.6c0.432 0 0.825-0.172 1.113-0.45l-0 0 1.86 0.93c0.21 0.1 0.47 0.060 0.63-0.12l3.94-4.44 3.87 2.9c0.21 0.16 0.5 0.14 0.69-0.030l3.36-3.2v8.14h-18.12v-12.26h18.12v2.66l-3.77 3.57-3.9-2.93c-0.087-0.066-0.198-0.105-0.317-0.105-0.161 0-0.305 0.072-0.402 0.185l-0.001 0.001-4 4.49-1.49-0.75c0.020-0.060 0.020-0.13 0.020-0.19 0-0.88-0.71-1.6-1.6-1.6zM8.53 15.5c0 0.295-0.24 0.535-0.535 0.535s-0.535-0.24-0.535-0.535v0c0-0.295 0.24-0.535 0.535-0.535s0.535 0.24 0.535 0.535v0zM11.73 24.030h5.33v0.53c0 0.3-0.24 0.53-0.53 0.53h-4.27c-0.293 0-0.53-0.237-0.53-0.53v0-0.53zM1.070 24.56c0-0.3 0.24-0.53 0.53-0.53h9.060v0.53c0 0.88 0.72 1.6 1.6 1.6h4.26c0.89 0 1.6-0.72 1.6-1.6v-0.53h9.060c0.3 0 0.54 0.24 0.54 0.53v2.13c0 0.3-0.24 0.53-0.53 0.53h-25.6c-0.288-0.006-0.52-0.241-0.52-0.53 0-0 0-0 0-0v0-2.13z"></path>
</symbol>
<symbol id="icon-clock" viewBox="0 0 32 32">
<path fill="#212121" style="fill: var(--color5, #212121)" d="M31.3 15.3c-0.004-8.447-6.852-15.293-15.3-15.293-8.45 0-15.3 6.85-15.3 15.3 0 6.785 4.417 12.539 10.532 14.542l0.108 0.031 0.18 0.030c0.12 0 0.24-0.030 0.35-0.1 0.13-0.070 0.23-0.2 0.28-0.35l3.85-12.25c1.051-0.005 1.9-0.858 1.9-1.91 0-1.055-0.855-1.91-1.91-1.91-0.302 0-0.588 0.070-0.842 0.195l0.011-0.005-5.1-5.1c-0.109-0.088-0.249-0.142-0.402-0.142-0.353 0-0.64 0.287-0.64 0.64 0 0.153 0.054 0.293 0.143 0.403l-0.001-0.001 5.1 5.1c-0.4 0.8-0.17 1.77 0.53 2.31l-3.68 11.67c-5.408-2.034-9.185-7.163-9.185-13.174 0-7.754 6.286-14.040 14.040-14.040s14.040 6.286 14.040 14.040c0 5.684-3.378 10.58-8.236 12.788l-0.088 0.036-0.4-1.87c-0.068-0.285-0.321-0.494-0.623-0.494-0.16 0-0.306 0.058-0.418 0.155l0.001-0.001-3.84 3.42c-0.133 0.118-0.217 0.289-0.217 0.48 0 0.284 0.185 0.525 0.442 0.609l0.005 0.001 4.9 1.56c0.058 0.019 0.124 0.030 0.193 0.030 0.353 0 0.64-0.287 0.64-0.64 0-0.046-0.005-0.091-0.014-0.134l0.001 0.004-0.4-1.84c5.539-2.371 9.35-7.775 9.35-14.069 0-0.007 0-0.015 0-0.022v0.001zM16 14.66c0.353 0 0.64 0.287 0.64 0.64s-0.287 0.64-0.64 0.64v0c-0.353 0-0.64-0.287-0.64-0.64s0.287-0.64 0.64-0.64v0zM18.1 29.53l2.18-1.95 0.6 2.84-2.79-0.9z"></path>
<path fill="#2196f3" style="fill: var(--color4, #2196f3)" d="M15.35 3.19v1.27c0 0.353 0.287 0.64 0.64 0.64s0.64-0.287 0.64-0.64v-1.27c0-0.353-0.287-0.64-0.64-0.64s-0.64 0.287-0.64 0.64v0zM3.88 14.66c-0.353 0-0.64 0.287-0.64 0.64s0.287 0.64 0.64 0.64h1.27c0.353 0 0.64-0.287 0.64-0.64s-0.287-0.64-0.64-0.64h-1.27zM28.1 15.94c0.353 0 0.64-0.287 0.64-0.64s-0.287-0.64-0.64-0.64h-1.27c-0.353 0-0.64 0.287-0.64 0.64s0.287 0.64 0.64 0.64h1.28z"></path>
</symbol>
<symbol id="icon-client-two" viewBox="0 0 32 32">
<path fill="#afb1b8" style="fill: var(--color2, #afb1b8)" d="M15.13 8.73h-0.37c-0.058-0.002-0.126-0.003-0.195-0.003s-0.137 0.001-0.205 0.003l0.010-0c-1.1 0.070-2.18 0.34-3.17 0.82l-0.14 0.060v6.68l0.3-0.1c0.28-0.1 0.56-0.17 0.86-0.25 0.8-0.2 1.62-0.32 2.44-0.33v0.88l-0.32 0.010h-0.030c-1.522 0.082-2.929 0.502-4.17 1.185l0.050-0.025v-8.56c1.307-0.779 2.882-1.24 4.564-1.24 0.002 0 0.004 0 0.006 0h0.13c0.552 0.003 1.086 0.076 1.594 0.21l-0.044-0.010v0.86c-0.35-0.080-0.71-0.14-1.070-0.16h-0.020l-0.22-0.020zM16.65 9.62l0.6 0.020c1.673-0 3.244-0.434 4.608-1.195l-0.048 0.025v8.42c-1.293 0.761-2.848 1.21-4.508 1.21-0.616 0-1.218-0.062-1.8-0.18l0.058 0.010v-8.47c0.315 0.076 0.688 0.133 1.069 0.159l0.021 0.001zM20.94 9.68l-0.31 0.1c-1.013 0.364-2.182 0.575-3.401 0.575-0.193 0-0.385-0.005-0.576-0.016l0.027 0.001h-0.24v6.87l0.2 0.020 0.6 0.020c0.003 0 0.008 0 0.012 0 1.295 0 2.519-0.303 3.606-0.841l-0.047 0.021 0.13-0.060v-6.69zM10.79 20.6c-0.083-0.092-0.202-0.15-0.335-0.15-0.002 0-0.003 0-0.005 0h0c-0.001 0-0.003-0-0.004-0-0.071 0-0.138 0.015-0.199 0.041l0.003-0.001c-0.050 0.020-0.1 0.060-0.15 0.1s-0.080 0.1-0.1 0.16c-0.019 0.051-0.030 0.11-0.030 0.172 0 0.006 0 0.013 0 0.019l-0-0.001v1.14c0 0.080 0.010 0.16 0.040 0.24 0.030 0.060 0.070 0.1 0.12 0.15 0.040 0.040 0.1 0.070 0.15 0.080l0.18 0.030c0.060 0 0.12-0.020 0.18-0.040 0.177-0.076 0.299-0.249 0.3-0.45v-0.13h-0.3v0.1c0 0.040-0.010 0.080-0.030 0.1-0.009 0.027-0.022 0.050-0.040 0.070l0-0c-0.035 0.025-0.079 0.040-0.127 0.040-0.001 0-0.002 0-0.004-0h0c-0.006 0.001-0.012 0.001-0.019 0.001-0.049 0-0.093-0.024-0.121-0.061l-0-0c-0.025-0.041-0.040-0.091-0.040-0.144 0-0.002 0-0.004 0-0.006v0-1.060c0-0.060 0.010-0.12 0.040-0.17l0.060-0.050c0.023-0.013 0.050-0.020 0.078-0.020 0.004 0 0.008 0 0.012 0l-0.001-0c0.020 0 0.050 0 0.070 0.020l0.060 0.050c0.030 0.040 0.050 0.1 0.050 0.15v0.1h0.3v-0.12c0-0.002 0-0.003 0-0.005 0-0.137-0.053-0.262-0.14-0.355l0 0zM12.57 20.58c-0.092-0.080-0.214-0.129-0.347-0.129-0.062 0-0.122 0.011-0.177 0.030l0.004-0.001c-0.121 0.044-0.217 0.134-0.269 0.247l-0.001 0.003c-0.032 0.067-0.050 0.146-0.050 0.229 0 0 0 0.001 0 0.001v-0 1.1c0 0.080 0.010 0.15 0.040 0.23l0.12 0.15c0.086 0.081 0.201 0.13 0.329 0.13 0.004 0 0.008-0 0.012-0h-0.001c0.131-0.001 0.25-0.050 0.341-0.13l-0.001 0c0.050-0.040 0.080-0.1 0.11-0.15 0.026-0.060 0.041-0.13 0.041-0.204 0-0.009-0-0.019-0.001-0.028l0 0.001v-1.1c0-0.005 0-0.011 0-0.017 0-0.073-0.015-0.143-0.042-0.206l0.001 0.003c-0.027-0.062-0.064-0.116-0.11-0.16l-0-0zM12.43 22.060c0 0.030 0 0.060-0.020 0.090l-0.040 0.070c-0.039 0.034-0.089 0.055-0.145 0.055s-0.107-0.021-0.145-0.055l0 0c-0.037-0.036-0.061-0.087-0.061-0.143 0-0.006 0-0.012 0.001-0.017l-0 0.001v-1.1c-0-0.005-0.001-0.011-0.001-0.017 0-0.056 0.023-0.107 0.061-0.143l0-0c0.039-0.034 0.089-0.055 0.145-0.055s0.107 0.021 0.145 0.055l-0-0c0.037 0.036 0.061 0.087 0.061 0.143 0 0.006-0 0.012-0.001 0.017l0-0.001v1.1zM14.9 22.55v-2.080h-0.28l-0.38 1.1-0.39-1.1h-0.28v2.080h0.3v-1.25l0.29 0.89h0.15l0.29-0.9v1.27h0.3zM16.6 20.62c-0.048-0.054-0.108-0.095-0.177-0.119l-0.003-0.001c-0.058-0.019-0.124-0.030-0.193-0.030-0.006 0-0.012 0-0.018 0l0.001-0h-0.44v2.080h0.3v-0.81h0.15c0.090 0 0.18-0.020 0.26-0.060 0.070-0.030 0.13-0.090 0.17-0.16 0.030-0.052 0.051-0.113 0.060-0.177l0-0.003c0.016-0.080 0.025-0.171 0.025-0.265s-0.009-0.185-0.026-0.274l0.001 0.009c-0.023-0.079-0.064-0.147-0.12-0.2l-0-0zM16.44 21.25c0 0.040-0.010 0.080-0.030 0.1-0.017 0.035-0.045 0.063-0.079 0.080l-0.001 0c-0.038 0.019-0.083 0.030-0.131 0.030-0.003 0-0.006-0-0.009-0h-0.13v-0.7h0.15c0.050-0.010 0.1 0 0.14 0.020 0.030 0.010 0.050 0.040 0.070 0.070l0.020 0.12v0.28zM18 20.47h-0.25l-0.46 2.080h0.3l0.090-0.45h0.4l0.090 0.45h0.3l-0.48-2.080zM17.72 21.82l0.15-0.75 0.15 0.75h-0.3zM19.9 21.72l-0.44-1.25h-0.29v2.080h0.3v-1.25l0.46 1.25h0.27v-2.080h-0.3v1.25zM21.72 20.47l-0.24 0.83-0.24-0.83h-0.32l0.41 1.2v0.88h0.3v-0.88l0.4-1.2h-0.31zM9.96 23.14h0.14v0.4h0.1v-0.4h0.14v-0.080h-0.38v0.080zM11.16 23.060l-0.18 0.48h0.1l0.040-0.11h0.2l0.030 0.1h0.1l-0.18-0.47h-0.1zM11.15 23.35l0.060-0.18 0.070 0.18h-0.13zM12.35 23.36h0.11v0.060c-0.030 0.023-0.068 0.038-0.11 0.040l-0.001 0c-0.002 0-0.004 0-0.006 0-0.037 0-0.070-0.015-0.094-0.040l-0-0c-0.025-0.033-0.040-0.075-0.040-0.12 0-0.003 0-0.007 0-0.010l-0 0c0-0.1 0.040-0.16 0.14-0.16 0.020 0 0.050 0 0.070 0.020l0.040 0.060 0.1-0.020c-0.030-0.1-0.1-0.14-0.21-0.14-0.002-0-0.005-0-0.007-0-0.062 0-0.119 0.023-0.163 0.060l0-0c-0.044 0.043-0.071 0.104-0.071 0.17 0 0.007 0 0.014 0.001 0.021l-0-0.001c0 0.060 0.020 0.13 0.060 0.18l0.080 0.050 0.1 0.020c0.080 0 0.15-0.030 0.2-0.080v-0.19h-0.2v0.080zM13.56 23.060h-0.1v0.48h0.34v-0.080h-0.24v-0.4zM14.59 23.060h-0.1v0.48h0.1v-0.48zM15.59 23.38l-0.2-0.32h-0.1v0.48h0.1v-0.32l0.19 0.32h0.1v-0.48h-0.1v0.32zM16.5 23.33h0.23v-0.090h-0.24v-0.1h0.26v-0.080h-0.35v0.48h0.36v-0.080h-0.27v-0.13zM18.69 23.25h-0.19v-0.2h-0.1v0.49h0.1v-0.21h0.19v0.2h0.1v-0.47h-0.1v0.19zM19.6 23.33h0.24v-0.090h-0.24v-0.1h0.26v-0.080h-0.35v0.48h0.36v-0.080h-0.27v-0.13zM20.84 23.33c0.080-0.020 0.12-0.060 0.12-0.14v-0.060c0-0.020-0.030-0.030-0.040-0.040-0.036-0.019-0.079-0.030-0.125-0.030-0.005 0-0.011 0-0.016 0l0.001-0h-0.2v0.48h0.090v-0.2h0.080c0.013 0.011 0.023 0.024 0.030 0.039l0 0.001 0.1 0.16h0.12l-0.060-0.1c-0.025-0.044-0.059-0.081-0.099-0.109l-0.001-0.001zM20.74 23.26h-0.070v-0.12h0.070l0.1 0.010 0.020 0.020v0.060l-0.020 0.020c-0.023 0.007-0.050 0.011-0.077 0.011-0.008 0-0.016-0-0.024-0.001l0.001 0zM21.77 23.33h0.23v-0.090h-0.24v-0.1h0.26v-0.080h-0.36v0.48h0.37v-0.080h-0.27v-0.13z"></path>
</symbol>
<symbol id="icon-client-three" viewBox="0 0 32 32">
<path fill="#afb1b8" style="fill: var(--color2, #afb1b8)" d="M11 21.77h0.020l0.060 0.070c-0.050 0.051-0.11 0.091-0.176 0.119l-0.004 0.001c-0.072 0.026-0.154 0.041-0.24 0.041-0.011 0-0.021-0-0.031-0.001l0.002 0c-0.003 0-0.007 0-0.010 0-0.082 0-0.162-0.015-0.235-0.042l0.005 0.002c-0.138-0.050-0.246-0.154-0.299-0.287l-0.001-0.003c-0.030-0.065-0.048-0.14-0.050-0.219l-0-0.001c0-0.080 0.010-0.15 0.050-0.23 0.062-0.137 0.176-0.242 0.316-0.289l0.004-0.001c0.075-0.026 0.161-0.041 0.25-0.041s0.175 0.015 0.255 0.043l-0.005-0.002 0.17 0.1-0.060 0.070-0.010 0.010h-0.050l-0.030-0.020-0.040-0.020-0.050-0.020c-0.051-0.018-0.109-0.029-0.17-0.030h-0c-0.070 0-0.13 0.010-0.19 0.030-0.108 0.037-0.194 0.116-0.239 0.217l-0.001 0.003c-0.019 0.048-0.030 0.104-0.030 0.162 0 0.006 0 0.012 0 0.018l-0-0.001c0 0.060 0.010 0.12 0.040 0.18 0.020 0.040 0.050 0.1 0.090 0.13 0.030 0.040 0.080 0.060 0.13 0.080 0.060 0.020 0.11 0.030 0.17 0.030h0.1c0.085-0.011 0.161-0.047 0.22-0.1l-0 0h0.030zM12.9 21.45c0 0.080-0.020 0.15-0.050 0.22s-0.070 0.12-0.13 0.17-0.12 0.1-0.2 0.12c-0.075 0.025-0.161 0.040-0.25 0.040s-0.175-0.015-0.256-0.042l0.006 0.002c-0.070-0.030-0.13-0.070-0.18-0.12l0 0c-0.054-0.046-0.098-0.103-0.129-0.167l-0.001-0.003c-0.029-0.066-0.045-0.144-0.045-0.225s0.017-0.159 0.047-0.229l-0.001 0.004c0.032-0.067 0.076-0.123 0.129-0.169l0.001-0.001c0.053-0.047 0.117-0.084 0.186-0.109l0.004-0.001c0.075-0.025 0.161-0.040 0.25-0.040s0.175 0.015 0.256 0.042l-0.006-0.002c0.070 0.030 0.14 0.060 0.2 0.11s0.090 0.11 0.12 0.18c0.030 0.070 0.040 0.14 0.040 0.22zM12.72 21.45l-0.030-0.18c-0.039-0.105-0.123-0.185-0.227-0.219l-0.003-0.001c-0.054-0.018-0.116-0.029-0.18-0.029s-0.126 0.010-0.184 0.030l0.004-0.001c-0.106 0.036-0.19 0.116-0.229 0.217l-0.001 0.003c-0.020 0.053-0.032 0.115-0.032 0.18s0.012 0.127 0.033 0.184l-0.001-0.004c0.042 0.103 0.124 0.183 0.227 0.219l0.003 0.001c0.054 0.018 0.116 0.028 0.18 0.028s0.126-0.010 0.184-0.029l-0.004 0.001c0.106-0.036 0.19-0.116 0.229-0.217l0.001-0.003c0.019-0.049 0.030-0.105 0.030-0.164 0-0.006-0-0.011-0-0.017l0 0.001zM14.19 21.64l0.020 0.040 0.010-0.040 0.030-0.040 0.42-0.67 0.020-0.020h0.16v1.080h-0.15v-0.86l-0.42 0.67c0 0.010-0.010 0.020-0.030 0.020l-0.030 0.010h-0.060l-0.030-0.030-0.43-0.68v0.88h-0.14v-1.1h0.12c0.006-0.001 0.013-0.002 0.020-0.002s0.014 0.001 0.021 0.002l-0.001-0 0.020 0.030 0.43 0.66 0.020 0.040zM15.77 21.58v0.4h-0.16v-1.070h0.36c0.070 0 0.14 0 0.2 0.020s0.11 0.040 0.15 0.070l0.090 0.1 0.020 0.15c0 0.040 0 0.090-0.030 0.13-0.021 0.044-0.052 0.081-0.089 0.109l-0.001 0.001c-0.040 0.030-0.086 0.054-0.137 0.069l-0.003 0.001c-0.060 0.019-0.129 0.030-0.2 0.030h-0.2zM15.77 21.47h0.2c0.047-0.001 0.091-0.008 0.134-0.021l-0.004 0.001c0.038-0.007 0.071-0.021 0.101-0.041l-0.001 0.001c0.049-0.037 0.080-0.095 0.080-0.16v0l-0.030-0.1c-0.014-0.029-0.034-0.053-0.059-0.070l-0.001-0c-0.055-0.038-0.123-0.061-0.197-0.061-0.008 0-0.016 0-0.024 0.001l0.001-0h-0.2v0.45zM17.98 21.99h-0.13l-0.030-0.010-0.020-0.030-0.12-0.26h-0.56l-0.11 0.26-0.020 0.030c-0.010 0.006-0.023 0.010-0.036 0.010-0.001 0-0.003-0-0.004-0h-0.13l0.5-1.080h0.16l0.5 1.080zM17.17 21.59h0.46l-0.2-0.44c-0.011-0.027-0.021-0.061-0.029-0.095l-0.001-0.005-0.040 0.1-0.2 0.44zM18.7 20.91l0.020 0.020 0.72 0.82v-0.84h0.15v1.080h-0.12l-0.030-0.030-0.71-0.8v0.82h-0.15v-1.080h0.12zM20.8 21.56v0.43h-0.16v-0.43l-0.46-0.65h0.18l0.030 0.030 0.28 0.42 0.030 0.050 0.020 0.050 0.020-0.050 0.030-0.050 0.28-0.42 0.020-0.020 0.040-0.010h0.15l-0.46 0.65zM14.1 19.1l0.23 0.020c1.1-0.44 2.050-1.14 2.7-2.040s0.98-1.93 0.95-2.98l-1.22-1.070c0.25 1.13 0.13 2.29-0.34 3.36s-1.27 2-2.31 2.7z"></path>
<path fill="#afb1b8" style="fill: var(--color2, #afb1b8)" d="M13.67 19.050h0.030c1.12-0.7 1.97-1.66 2.45-2.78s0.56-2.34 0.23-3.5l-1.75-1.52c0.7 1.25 1 2.64 0.82 4.020s-0.79 2.69-1.78 3.78zM19.58 15.34c-0.337 1.233-1.063 2.264-2.035 2.979l-0.015 0.011c-0.3 0.23-0.63 0.43-0.97 0.6 0.84-0.2 1.61-0.59 2.26-1.1s1.15-1.16 1.47-1.87l-0.7-0.62z"></path>
<path fill="#afb1b8" style="fill: var(--color2, #afb1b8)" d="M19.3 15.17l-1-0.87c-0.020 1-0.35 1.97-0.95 2.82s-1.45 1.55-2.46 2.010c0.23 0 0.46 0 0.68-0.030 0.95-0.34 1.78-0.87 2.44-1.56s1.1-1.5 1.3-2.37zM13.82 10.62l-1.2-1.050c-1.080 0.36-2 1-2.65 1.82s-1 1.8-1.010 2.8c0 1.1 0.43 2.17 1.22 3.040s1.88 1.5 3.11 1.76c1.1-1.17 1.75-2.6 1.84-4.11s-0.37-3-1.31-4.27zM22.080 15.010c0-1.3-0.6-2.56-1.67-3.5s-2.52-1.44-4.030-1.44c-0.7 0-1.38 0.1-2.030 0.33l7.35 6.38c0.25-0.56 0.38-1.16 0.38-1.77z"></path>
</symbol>
<symbol id="icon-client-six" viewBox="0 0 32 32">
<path fill="#afb1b8" style="fill: var(--color2, #afb1b8)" d="M16.13 15.22c-0.114-0.148-0.182-0.336-0.182-0.539 0-0.021 0.001-0.043 0.002-0.063l-0 0.003v-0.87c0-0.27 0.060-0.47 0.18-0.61s0.33-0.2 0.62-0.2c0.28 0 0.47 0.050 0.6 0.17 0.12 0.15 0.18 0.34 0.16 0.52v0.2h-0.49v-0.2l-0.010-0.2c-0.011-0.050-0.040-0.092-0.079-0.12l-0.001-0c-0.046-0.031-0.102-0.050-0.163-0.050-0.003 0-0.005 0-0.007 0h0c-0.009-0.001-0.020-0.002-0.032-0.002-0.063 0-0.121 0.019-0.169 0.052l0.001-0.001c-0.040 0.032-0.068 0.077-0.080 0.128l-0 0.002c-0.008 0.046-0.012 0.099-0.012 0.154 0 0.023 0.001 0.046 0.002 0.069l-0-0.003v1.050c-0.010 0.1 0.010 0.2 0.060 0.3 0.020 0.030 0.060 0.060 0.1 0.070l0.13 0.020c0.060 0 0.12-0.010 0.17-0.050 0.040-0.032 0.069-0.077 0.080-0.129l0-0.001 0.010-0.2v-0.22h0.5v0.2c0.001 0.014 0.001 0.029 0.001 0.045 0 0.188-0.064 0.36-0.173 0.496l0.001-0.002c-0.12 0.13-0.31 0.2-0.6 0.2s-0.5-0.070-0.62-0.22zM18.2 15.23c-0.13-0.14-0.2-0.34-0.2-0.6v-0.91c0-0.26 0.070-0.46 0.2-0.6s0.32-0.19 0.62-0.19c0.29 0 0.5 0.070 0.62 0.2s0.2 0.33 0.2 0.59v0.91c0 0.26-0.070 0.46-0.2 0.6s-0.33 0.2-0.62 0.2-0.5-0.070-0.63-0.2zM19.050 15.010c0.038-0.069 0.061-0.152 0.061-0.239 0-0.011-0-0.022-0.001-0.032l0 0.001v-1.14c0-0.006 0-0.014 0-0.022 0-0.087-0.022-0.169-0.062-0.241l0.001 0.003c-0.030-0.030-0.060-0.060-0.1-0.070s-0.090-0.030-0.13-0.020c-0.050 0-0.1 0-0.13 0.020s-0.080 0.040-0.1 0.070c-0.038 0.067-0.061 0.148-0.061 0.234 0 0.009 0 0.018 0.001 0.028l-0-0.001v1.13c-0.010 0.1 0.010 0.19 0.050 0.27l0.1 0.070c0.040 0.020 0.1 0.020 0.14 0.020 0.089-0 0.17-0.034 0.23-0.090l-0 0zM20.23 12.96h0.53l0.4 1.69 0.41-1.7h0.52l0.050 2.45h-0.38l-0.040-1.7-0.4 1.7h-0.3l-0.42-1.7-0.040 1.7h-0.38l0.040-2.44zM22.74 12.96h0.83c0.48 0 0.72 0.23 0.72 0.69 0 0.44-0.25 0.66-0.76 0.66h-0.28v1.090h-0.51v-2.44zM23.45 14c0.013 0.002 0.028 0.002 0.044 0.002 0.090 0 0.172-0.031 0.237-0.083l-0.001 0.001c0.051-0.066 0.081-0.15 0.081-0.241 0-0.010-0-0.020-0.001-0.030l0 0.001c0-0.080 0-0.15-0.030-0.22 0-0.030-0.020-0.050-0.040-0.070l-0.060-0.050c-0.061-0.026-0.131-0.041-0.205-0.041-0.009 0-0.017 0-0.026 0.001l0.001-0h-0.2v0.73h0.2zM25.030 12.96h0.55l0.56 2.44h-0.47l-0.12-0.57h-0.49l-0.11 0.57h-0.49l0.57-2.44zM25.5 14.56l-0.2-1.030-0.18 1.020h0.38zM26.6 12.96h0.36l0.69 1.39v-1.4h0.42v2.45h-0.34l-0.69-1.46v1.46h-0.44v-2.44zM29.070 14.47l-0.57-1.5h0.48l0.35 0.96 0.33-0.97h0.47l-0.57 1.5v0.94h-0.49v-0.93zM16.92 16.46v0.13h-0.42v1h-0.17v-1h-0.42v-0.13h1.010zM18.23 17.58h-0.13l-0.040-0.010c-0.009-0.008-0.016-0.018-0.020-0.030l-0-0-0.13-0.26h-0.58l-0.12 0.26-0.010 0.030c-0.010 0.006-0.023 0.010-0.036 0.010-0.001 0-0.003-0-0.004-0h-0.14l0.52-1.11h0.17l0.52 1.11zM17.38 17.17h0.49l-0.2-0.46c-0.017-0.028-0.033-0.061-0.048-0.095l-0.002-0.005c0 0.020 0 0.040-0.020 0.060l-0.010 0.040-0.2 0.46zM19.12 17.47h0.1c0.055-0.003 0.106-0.014 0.154-0.031l-0.004 0.001 0.070-0.030v-0.25h-0.22l-0.020-0.010v-0.11h0.4v0.43c-0.066 0.044-0.143 0.079-0.225 0.099l-0.005 0.001c-0.061 0.014-0.131 0.022-0.203 0.022-0.024 0-0.047-0.001-0.070-0.003l0.003 0c-0.005 0-0.012 0-0.018 0-0.087 0-0.17-0.015-0.248-0.042l0.005 0.002c-0.077-0.029-0.144-0.069-0.201-0.12l0.001 0c-0.11-0.099-0.179-0.241-0.18-0.4v-0c-0-0.006-0-0.013-0-0.021 0-0.156 0.070-0.295 0.18-0.389l0.001-0.001c0.056-0.051 0.123-0.092 0.196-0.119l0.004-0.001c0.080-0.028 0.173-0.044 0.269-0.044 0.053 0 0.106 0.005 0.157 0.014l-0.005-0.001c0.082 0.012 0.156 0.037 0.224 0.072l-0.004-0.002 0.090 0.060-0.050 0.070-0.020 0.010h-0.050c-0.020-0.010-0.036-0.020-0.052-0.031l0.002 0.001c-0.083-0.044-0.182-0.070-0.286-0.070-0.005 0-0.009 0-0.014 0h0.001c-0.072 0.002-0.141 0.017-0.204 0.041l0.004-0.001c-0.054 0.022-0.101 0.052-0.14 0.090l0-0c-0.042 0.035-0.076 0.079-0.099 0.128l-0.001 0.002c-0.023 0.056-0.036 0.122-0.036 0.19s0.013 0.134 0.037 0.194l-0.001-0.003c0.020 0.050 0.060 0.1 0.1 0.14 0.050 0.040 0.1 0.070 0.16 0.090s0.13 0.020 0.2 0.020zM20.75 17.45h0.56v0.13h-0.73v-1.12h0.17v1zM21.9 17.58h-0.18v-1.12h0.17v1.12zM22.55 16.47l0.020 0.020 0.75 0.84v-0.87h0.16v1.12h-0.13c-0.012-0.008-0.022-0.018-0.030-0.030l-0-0-0.75-0.84v0.88h-0.14v-1.13h0.090c0.005-0.001 0.010-0.001 0.015-0.001s0.011 0 0.016 0.001l-0.001-0zM24.77 16.46v0.12h-0.63v0.37h0.5v0.12h-0.5v0.39h0.63v0.12h-0.8v-1.12h0.8zM6.39 9.56l7.79 1.9v6.7l-7.8-1.91v-6.7zM5.89 8.99v7.58l8.78 2.16v-7.59l-8.77-2.14z"></path>
<path fill="#afb1b8" style="fill: var(--color2, #afb1b8)" d="M10.6 22.25l-8.8-2.16v-7.58l8.79 2.15v7.59zM6.040 9.47l7.68 1.89-3.27 2.82-7.68-1.89 3.27-2.82zM5.89 8.99l-4.090 3.51 8.79 2.15 4.070-3.52-8.76-2.13zM11.1 21.82l3.57-3.1-3.58-0.87v3.97z"></path>
</symbol>
<symbol id="icon-client-one" viewBox="0 0 32 32">
<path fill="#afb1b8" style="fill: var(--color2, #afb1b8)" d="M11.47 9.060l2.12 2h-3.93v9.71h10.26v-3.71l2.12 2v-10h-10.57zM19.83 16.82l-6-5.67h6v5.67zM17.97 19.35h-6.69v-6.53h0.48v6.1h6.2v0.43zM12.87 22.070l-0.25 0.5-0.25-0.5h-0.2l0.35 0.68v0.4h0.19v-0.4l0.36-0.68h-0.2zM13.17 23.14l0.090-0.25h0.42l0.080 0.25h0.2l-0.4-1.070h-0.17l-0.4 1.070h0.18zM13.47 22.3l0.15 0.44h-0.3l0.15-0.44zM14.45 22.71c-0.028 0.043-0.044 0.095-0.044 0.151 0 0.083 0.036 0.158 0.094 0.209l0 0c0.070 0.060 0.15 0.080 0.26 0.080s0.2-0.020 0.27-0.080l0.060 0.070h0.21l-0.16-0.19c0.070-0.080 0.1-0.19 0.1-0.32h-0.16c0 0.070-0.010 0.14-0.040 0.2l-0.21-0.25 0.070-0.050c0.060-0.040 0.1-0.080 0.11-0.11s0.040-0.080 0.040-0.13c0-0.060-0.030-0.12-0.080-0.17s-0.11-0.070-0.19-0.070-0.15 0.030-0.2 0.080-0.080 0.11-0.080 0.2c0 0.030 0 0.070 0.020 0.1l0.090 0.14c-0.063 0.041-0.116 0.091-0.159 0.148l-0.001 0.002zM14.94 22.95c-0.046 0.037-0.105 0.059-0.17 0.060h-0c-0.060 0-0.1-0.010-0.13-0.040s-0.050-0.070-0.050-0.12c0-0.060 0.030-0.11 0.090-0.16l0.020-0.010 0.24 0.27zM14.74 22.48c-0.050-0.070-0.070-0.12-0.070-0.16 0-0.030 0-0.060 0.030-0.090s0.050-0.030 0.080-0.030 0.060 0 0.080 0.030 0.030 0.040 0.030 0.070-0.010 0.080-0.040 0.1l-0.030 0.020-0.080 0.060zM16.49 23.060c0.075-0.067 0.124-0.162 0.13-0.269l0-0.001h-0.19c0 0.080-0.030 0.13-0.070 0.17s-0.1 0.040-0.16 0.040c-0.080 0-0.15-0.030-0.19-0.090s-0.060-0.15-0.060-0.26v-0.1c0-0.11 0.020-0.2 0.070-0.26s0.1-0.090 0.18-0.090c0.070 0 0.13 0.020 0.16 0.060s0.060 0.090 0.070 0.16h0.19c-0.020-0.11-0.060-0.2-0.13-0.27s-0.17-0.1-0.29-0.1c-0.001 0-0.003-0-0.004-0-0.168 0-0.314 0.097-0.385 0.238l-0.001 0.002c-0.032 0.073-0.050 0.158-0.050 0.247 0 0.008 0 0.016 0 0.024l-0-0.001v0.1c0 0.1 0.020 0.19 0.060 0.26s0.080 0.14 0.15 0.18c0.060 0.040 0.14 0.060 0.22 0.060 0.13 0 0.22-0.040 0.3-0.1zM17.59 22.91c0.032-0.075 0.050-0.163 0.050-0.255 0-0.009-0-0.017-0-0.026l0 0.001v-0.060c0-0.1-0.020-0.2-0.060-0.27s-0.080-0.14-0.15-0.18c-0.070-0.050-0.15-0.070-0.23-0.070s-0.17 0.020-0.24 0.070c-0.060 0.040-0.12 0.1-0.15 0.18s-0.060 0.17-0.060 0.28v0.060c0 0.1 0.020 0.2 0.060 0.27s0.090 0.14 0.15 0.18c0.070 0.040 0.15 0.060 0.24 0.060s0.16-0.020 0.23-0.060c0.070-0.040 0.12-0.1 0.16-0.18zM17.39 22.31c0.040 0.060 0.060 0.15 0.060 0.27v0.050c0 0.12-0.020 0.22-0.060 0.28s-0.11 0.1-0.2 0.1c-0.080 0-0.14-0.040-0.19-0.1s-0.060-0.16-0.060-0.28v-0.060c0-0.12 0.020-0.2 0.060-0.27s0.11-0.1 0.2-0.1c0.080 0 0.14 0.040 0.18 0.1z"></path>
</symbol>
<symbol id="icon-client-four" viewBox="0 0 32 32">
<path fill="#afb1b8" style="fill: var(--color2, #afb1b8)" d="M7.29 13.31c-0.73 0-1.31 0.53-1.31 1.17s0.58 1.16 1.3 1.16c0.73 0 1.32-0.52 1.32-1.16s-0.59-1.17-1.31-1.17zM16.96 12.94c0-0.9-0.4-1.75-1.1-2.38s-1.68-0.99-2.69-0.99c-1 0-1.97 0.36-2.68 0.99s-1.11 1.49-1.11 2.38v4.93s7.58-0.75 7.58-4.93zM3.32 19.49c0 0.62 0.28 1.21 0.78 1.65s1.16 0.7 1.86 0.7c0.7 0 1.37-0.26 1.87-0.7s0.77-1.030 0.77-1.65v-3.43s-5.28 0.52-5.28 3.43zM5.96 20.1c-0.14 0-0.27-0.040-0.38-0.1s-0.2-0.17-0.26-0.28c-0.050-0.11-0.070-0.23-0.040-0.35s0.1-0.23 0.2-0.32c0.090-0.090 0.21-0.14 0.34-0.17s0.28 0 0.4 0.040c0.249 0.075 0.428 0.301 0.43 0.57v0c0 0.080-0.020 0.16-0.050 0.23s-0.090 0.14-0.15 0.2c-0.133 0.108-0.303 0.175-0.489 0.18l-0.001 0zM11.3 19.76h-0.51v0.53h-0.27v-1.29h0.84v0.22h-0.57v0.33h0.5v0.21zM12.57 19.67c0 0.13-0.020 0.24-0.070 0.34-0.082 0.178-0.259 0.3-0.465 0.3-0.005 0-0.011-0-0.016-0l0.001 0c-0.001 0-0.002 0-0.002 0-0.209 0-0.39-0.121-0.476-0.297l-0.001-0.003c-0.044-0.093-0.070-0.203-0.070-0.319 0-0.004 0-0.008 0-0.012v0.001-0.060c0-0.13 0.030-0.24 0.070-0.34s0.11-0.17 0.2-0.22c0.080-0.050 0.17-0.080 0.28-0.080s0.2 0.030 0.29 0.080c0.080 0.050 0.15 0.13 0.2 0.22s0.060 0.21 0.060 0.34v0.050zM12.3 19.62c0-0.14-0.020-0.24-0.070-0.31s-0.12-0.1-0.2-0.1c-0.1 0-0.16 0.030-0.21 0.1s-0.080 0.17-0.080 0.3v0.060c0 0.13 0.030 0.24 0.080 0.31s0.11 0.1 0.2 0.1c0.1 0 0.16-0.030 0.21-0.1s0.070-0.17 0.070-0.3v-0.060zM13.43 19.95c0-0.050-0.020-0.090-0.050-0.11l-0.2-0.090-0.21-0.090c-0.15-0.080-0.22-0.18-0.22-0.32 0-0.070 0.020-0.13 0.060-0.18s0.1-0.1 0.17-0.13 0.15-0.050 0.25-0.050 0.17 0.020 0.24 0.050c0.133 0.064 0.225 0.196 0.23 0.349v0.001h-0.27c0-0.060-0.020-0.1-0.050-0.13s-0.1-0.050-0.16-0.050-0.11 0.010-0.15 0.040-0.050 0.060-0.050 0.1c0 0.050 0.020 0.080 0.060 0.11s0.1 0.060 0.19 0.080 0.26 0.1 0.33 0.17 0.1 0.15 0.1 0.25c0 0.11-0.040 0.2-0.13 0.26s-0.2 0.1-0.34 0.1c-0.1 0-0.19-0.020-0.27-0.050s-0.14-0.1-0.19-0.15c-0.038-0.059-0.060-0.131-0.060-0.208 0-0.004 0-0.008 0-0.012v0.001h0.27c0 0.14 0.080 0.21 0.25 0.21 0.060 0 0.11-0.010 0.15-0.040s0.050-0.060 0.050-0.1zM14.85 19.22h-0.4v1.070h-0.26v-1.070h-0.39v-0.22h1.050v0.22zM15.78 19.73h-0.51v0.35h0.6v0.2h-0.87v-1.28h0.86v0.22h-0.6v0.3h0.52v0.21zM16.5 19.82h-0.22v0.47h-0.26v-1.29h0.48c0.15 0 0.27 0.030 0.35 0.1s0.12 0.17 0.12 0.29c0 0.090-0.010 0.16-0.050 0.22s-0.1 0.1-0.18 0.14l0.28 0.52v0.020h-0.28l-0.24-0.47zM16.28 19.6h0.22c0.060 0 0.12-0.010 0.15-0.050s0.060-0.080 0.060-0.14c0-0.060-0.020-0.1-0.050-0.14s-0.1-0.050-0.16-0.050h-0.22v0.38zM17.89 19.83v0.46h-0.26v-1.29h0.5c0.1 0 0.18 0.020 0.25 0.050s0.13 0.090 0.17 0.16c0.040 0.060 0.060 0.13 0.060 0.22 0 0.12-0.040 0.22-0.13 0.3s-0.2 0.1-0.35 0.1h-0.24zM17.89 19.62h0.24c0.070 0 0.12-0.020 0.16-0.050s0.050-0.080 0.050-0.14c0-0.060-0.010-0.12-0.050-0.15s-0.090-0.060-0.16-0.060h-0.24v0.4zM19.57 19.73h-0.5v0.35h0.59v0.2h-0.86v-1.28h0.86v0.22h-0.6v0.3h0.51v0.21zM20.8 19.22h-0.4v1.070h-0.26v-1.070h-0.39v-0.22h1.050v0.22zM21.73 19.73h-0.51v0.35h0.6v0.2h-0.87v-1.28h0.87v0.22h-0.6v0.3h0.5v0.21zM22.45 19.82h-0.21v0.47h-0.27v-1.29h0.48c0.15 0 0.27 0.030 0.35 0.1s0.13 0.17 0.13 0.29c0 0.090-0.020 0.16-0.060 0.22s-0.1 0.1-0.17 0.14l0.28 0.52v0.020h-0.29l-0.24-0.47zM22.24 19.6h0.21c0.070 0 0.12-0.010 0.16-0.050s0.050-0.080 0.050-0.14c0-0.060-0.020-0.1-0.050-0.14s-0.090-0.050-0.16-0.050h-0.21v0.38zM23.8 19.95c0-0.050-0.020-0.090-0.060-0.11l-0.19-0.090-0.21-0.090c-0.15-0.080-0.22-0.18-0.22-0.32 0-0.070 0.010-0.13 0.050-0.18s0.1-0.1 0.17-0.13c0.080-0.030 0.16-0.050 0.25-0.050s0.18 0.020 0.25 0.050c0.070 0.040 0.12 0.080 0.16 0.15s0.060 0.13 0.060 0.2h-0.26c0-0.060-0.020-0.1-0.060-0.13s-0.090-0.050-0.15-0.050c-0.070 0-0.12 0.010-0.16 0.040s-0.050 0.060-0.050 0.1c0 0.050 0.020 0.080 0.060 0.11s0.1 0.060 0.2 0.080c0.14 0.050 0.25 0.1 0.32 0.17s0.1 0.15 0.1 0.25c0 0.11-0.040 0.2-0.12 0.26s-0.2 0.1-0.34 0.1c-0.1 0-0.2-0.020-0.27-0.050s-0.15-0.1-0.19-0.15c-0.038-0.059-0.060-0.131-0.060-0.208 0-0.004 0-0.008 0-0.012v0.001h0.26c0 0.14 0.090 0.21 0.26 0.21 0.060 0 0.1-0.010 0.14-0.040s0.060-0.060 0.060-0.1z"></path>
</symbol>
<symbol id="icon-client-five" viewBox="0 0 32 32">
<path fill="#afb1b8" style="fill: var(--color2, #afb1b8)" d="M8.080 20.3c0.070 0.080 0.11 0.18 0.1 0.3 0.010 0.060 0 0.13-0.030 0.2s-0.070 0.12-0.13 0.16c-0.127 0.088-0.284 0.141-0.454 0.141-0.016 0-0.032-0-0.048-0.001l0.002 0h-0.88v-1.87h0.86c0.17 0 0.34 0.040 0.48 0.13 0.050 0.040 0.1 0.1 0.13 0.15s0.040 0.13 0.030 0.2c0 0.1-0.030 0.2-0.1 0.28-0.067 0.075-0.156 0.128-0.257 0.149l-0.003 0.001c0.12 0.018 0.224 0.076 0.3 0.16l0 0zM7.050 20h0.37c0.080 0.010 0.16-0.010 0.23-0.060 0.030-0.020 0.050-0.050 0.060-0.080l0.020-0.1c0-0.030 0-0.070-0.020-0.1l-0.060-0.080c-0.058-0.038-0.13-0.061-0.207-0.061-0.012 0-0.023 0.001-0.034 0.002l0.001-0h-0.36v0.49zM7.69 20.72l0.060-0.080c0.012-0.030 0.020-0.064 0.020-0.1v-0c0.001-0.007 0.001-0.014 0.001-0.022 0-0.073-0.036-0.138-0.090-0.178l-0.001-0c-0.063-0.044-0.142-0.070-0.226-0.070-0.005 0-0.010 0-0.014 0l0.001-0h-0.39v0.52h0.39c0.007 0 0.015 0.001 0.023 0.001 0.085 0 0.164-0.026 0.228-0.072l-0.001 0.001zM9.83 21.1l-0.47-0.73h-0.18v0.73h-0.42v-1.87h0.78c0.2-0.010 0.4 0.050 0.54 0.16 0.11 0.1 0.18 0.24 0.19 0.38s-0.030 0.28-0.13 0.4c-0.1 0.1-0.22 0.16-0.37 0.18l0.51 0.75h-0.45zM9.18 20.12h0.33c0.24 0 0.35-0.1 0.35-0.29 0-0.040 0-0.070-0.020-0.11l-0.060-0.1c-0.064-0.045-0.143-0.072-0.229-0.072-0.014 0-0.029 0.001-0.043 0.002l0.002-0h-0.34v0.57zM12.080 20.73h-0.82l-0.14 0.37h-0.44l0.76-1.85h0.46l0.75 1.85h-0.43l-0.14-0.37zM11.97 20.44l-0.3-0.79-0.3 0.8h0.6zM14.89 21.1h-0.4l-0.92-1.27v1.27h-0.4v-1.87h0.4l0.91 1.28v-1.28h0.41v1.87zM17.22 20.65c-0.089 0.144-0.215 0.257-0.365 0.328l-0.005 0.002c-0.16 0.076-0.348 0.12-0.546 0.12-0.012 0-0.024-0-0.035-0l0.002 0h-0.72v-1.87h0.72c0.2 0 0.4 0.040 0.58 0.12 0.15 0.070 0.28 0.18 0.37 0.32 0.080 0.141 0.127 0.31 0.127 0.49s-0.047 0.349-0.129 0.495l0.003-0.005zM16.75 20.61c0.12-0.12 0.18-0.28 0.18-0.45s-0.060-0.32-0.18-0.44c-0.126-0.101-0.289-0.161-0.465-0.161-0.016 0-0.032 0-0.047 0.001l0.002-0h-0.28v1.2h0.28c0.19 0.020 0.37-0.040 0.51-0.15zM12.33 8.84s5.27 1.82 5.16 4.45v4.45s-5.26-1.82-5.15-4.45v-4.45zM22.18 16.7c1-0.63 2.14-1.010 3.34-1.13v-1.4c-1.383 0.488-2.526 1.369-3.326 2.508l-0.014 0.022z"></path>
<path fill="#afb1b8" style="fill: var(--color2, #afb1b8)" d="M21.58 17.12c0.864-1.522 2.241-2.668 3.891-3.216l0.049-0.014v-4.020s-7.5 2.59-7.34 6.34v6.34l0.86-0.33c0-0.2 0-0.41 0.030-0.62 0.185-1.834 1.118-3.42 2.485-4.469l0.015-0.011z"></path>
<path fill="#afb1b8" style="fill: var(--color2, #afb1b8)" d="M20.87 19.48c0.030-0.44 0.12-0.88 0.26-1.3-0.942 1-1.538 2.336-1.59 3.81l-0 0.010c0.43-0.19 0.92-0.42 1.44-0.7-0.091-0.392-0.143-0.843-0.143-1.305 0-0.185 0.008-0.368 0.025-0.548l-0.002 0.023zM21.16 19.5c-0.050 0.55-0.010 1.11 0.1 1.66 2.050-1.12 4.35-2.85 4.26-4.95v-0.18c-1.505 0.147-2.846 0.75-3.909 1.668l0.009-0.008c-0.25 0.58-0.4 1.19-0.46 1.8z"></path>
</symbol>
<symbol id="icon-astronaut" viewBox="0 0 32 32">
<path fill="#2196f3" style="fill: var(--color4, #2196f3)" d="M31.97 4.52c-0.064-0.19-0.227-0.331-0.427-0.36l-0.003-0-1.9-0.28-0.86-1.73c-0.18-0.36-0.78-0.36-0.96 0l-0.85 1.73-1.91 0.28c-0.259 0.043-0.453 0.265-0.453 0.533 0 0.147 0.059 0.28 0.154 0.377l-0-0 1.38 1.35-0.32 1.9c-0.040 0.2 0.050 0.4 0.21 0.52 0.17 0.12 0.38 0.14 0.56 0.040l1.71-0.9 1.71 0.9c0.071 0.037 0.156 0.059 0.246 0.059 0.298 0 0.54-0.242 0.54-0.54 0-0.028-0.002-0.055-0.006-0.082l0 0.003-0.33-1.9 1.38-1.35c0.15-0.14 0.2-0.35 0.14-0.55zM29.51 5.85c-0.098 0.096-0.158 0.23-0.158 0.378 0 0.033 0.003 0.065 0.009 0.096l-0-0.003 0.19 1.12-1-0.53c-0.072-0.039-0.158-0.063-0.25-0.063s-0.178 0.023-0.253 0.064l0.003-0.001-1 0.53 0.2-1.12c0.004-0.025 0.007-0.054 0.007-0.084 0-0.152-0.064-0.289-0.166-0.386l-0-0-0.81-0.79 1.12-0.16c0.178-0.028 0.325-0.142 0.399-0.297l0.001-0.003 0.5-1 0.5 1c0.080 0.16 0.23 0.27 0.4 0.3l1.12 0.16-0.8 0.8zM26.13 20.52h-1.060v1.070h1.060v-1.070zM26.13 22.66h-1.060v1.060h1.060v-1.060zM27.2 21.59h-1.070v1.070h1.070v-1.070zM25.070 21.59h-1.070v1.070h1.070v-1.070zM22.4 26.39h-1.070v1.070h1.070v-1.070zM22.4 28.52h-1.070v1.070h1.070v-1.070zM23.47 27.46h-1.070v1.060h1.070v-1.060zM21.33 27.46h-1.060v1.060h1.060v-1.060zM16 24.26h-1.070v1.060h1.070v-1.060zM16 26.39h-1.070v1.070h1.070v-1.070zM17.070 25.32h-1.070v1.070h1.070v-1.070zM14.93 25.32h-1.060v1.070h1.060v-1.070zM5.87 6.12h-1.070v1.080h1.070v-1.080zM5.87 8.26h-1.070v1.060h1.070v-1.060zM6.93 7.19h-1.060v1.070h1.060v-1.070zM4.8 7.19h-1.070v1.070h1.070v-1.070z"></path>
<path fill="#212121" style="fill: var(--color5, #212121)" d="M24.71 14.16c-0.28-0.39-0.7-0.64-1.18-0.7-0.48-0.070-0.96 0.050-1.34 0.35l-1.26 0.96-1.9 1.41-1.35-0.54c2.399-1.127 4.030-3.523 4.030-6.3 0-3.812-3.073-6.906-6.876-6.94l-0.003-0c-0 0-0 0-0 0-3.833 0-6.943 3.099-6.96 6.928v0.002c0 1.39 0.42 2.68 1.12 3.76l-2.79-0.020-0.16 0.030-0.030 0.020h-0.020l-3.24 1.6-1.89 0.9c-0.515 0.318-0.854 0.879-0.854 1.52 0 0.983 0.797 1.78 1.78 1.78 0.001 0 0.003 0 0.004 0h-0c0.3 0.010 0.58-0.060 0.84-0.2l1.4-0.74 2.26-1.17h1.35l-5.44 5.39-1.34 1.35c-0.304 0.299-0.492 0.715-0.492 1.175s0.188 0.876 0.491 1.175l0 0c0.302 0.302 0.719 0.488 1.18 0.488s0.878-0.187 1.18-0.488l-0 0 1.31-1.3 1.74-1.3 0.9 0.89-1.76 1.75-1.34 1.34c-0.307 0.3-0.497 0.718-0.497 1.18s0.19 0.88 0.496 1.18l0 0c0.302 0.302 0.719 0.488 1.18 0.488s0.878-0.187 1.18-0.488l-0 0 3.48-3.47 1.030-1.020 5.17-5.66 3.47 0.5h0.070c0.070 0 0.13-0.020 0.2-0.040l0.1-0.050 3.21-2.13 0.030-0.030 0.040-0.030 1.27-1.19c0.67-0.62 0.76-1.63 0.22-2.36zM2.14 17.77c-0.098 0.054-0.214 0.086-0.338 0.086-0.079 0-0.156-0.013-0.227-0.037l0.005 0.001c-0.291-0.097-0.497-0.367-0.497-0.685 0-0.234 0.112-0.443 0.285-0.574l0.002-0.001 1.31-0.63 0.45 1.31-0.99 0.53zM5.64 15.94l-1.55 0.8-0.44-1.28 2.030-1-0.040 1.48zM20.74 9.32c0 0.92-0.22 1.79-0.6 2.56l-4.18-1.9c-0.046-0.578-0.349-1.077-0.794-1.386l-0.006-0.004 1.47-4.86c2.396 0.778 4.098 2.99 4.1 5.6v0zM8.94 9.32c0.017-3.24 2.648-5.859 5.89-5.859 0.268 0 0.532 0.018 0.79 0.053l-0.030-0.003-1.44 4.75h-0.050c-0.041-0.003-0.089-0.005-0.137-0.005-1.033 0-1.87 0.837-1.87 1.87s0.837 1.87 1.87 1.87c0.048 0 0.096-0.002 0.143-0.005l-0.006 0c0.7 0 1.3-0.38 1.62-0.95l3.86 1.76c-1.087 1.455-2.805 2.387-4.74 2.387-3.247 0-5.881-2.623-5.9-5.865v-0.002zM14.9 10.12c0 0.442-0.358 0.8-0.8 0.8s-0.8-0.358-0.8-0.8v0c0-0.442 0.358-0.8 0.8-0.8s0.8 0.358 0.8 0.8v0zM2.46 25.15c-0.109 0.109-0.259 0.176-0.425 0.176s-0.316-0.067-0.425-0.176l-0-0c-0.109-0.109-0.176-0.259-0.176-0.425s0.067-0.316 0.176-0.425l0-0 0.96-0.95 0.85 0.84-0.96 0.96zM5.68 28.88c-0.109 0.112-0.261 0.182-0.43 0.182s-0.321-0.070-0.43-0.181l-0-0c-0.106-0.108-0.171-0.256-0.171-0.42s0.065-0.312 0.172-0.42l-0 0 0.97-0.96 0.85 0.85-0.96 0.95zM9.16 25.41l-1.77 1.76-0.85-0.85 1.76-1.75c0.050-0.040 0.070-0.090 0.1-0.14l0.020-0.040c0.020-0.040 0.020-0.080 0.030-0.13l0.010-0.070-0.020-0.1c0-0.040 0-0.070-0.020-0.1-0.024-0.054-0.054-0.1-0.091-0.141l0.001 0.001-0.020-0.040-1.61-1.6-0.060-0.040c-0.026-0.018-0.056-0.035-0.087-0.049l-0.003-0.001c-0.026-0.015-0.055-0.028-0.086-0.039l-0.004-0.001c-0.029-0.009-0.063-0.016-0.098-0.020l-0.002-0c-0.015-0.002-0.032-0.003-0.050-0.003s-0.035 0.001-0.052 0.003l0.002-0-0.1 0.030c-0.038 0.011-0.071 0.024-0.103 0.041l-0.058 0.029-1.77 1.33-0.9-0.9 2.4-2.39 4.36 4.3-0.93 0.91zM15.98 18.39h-0.050c-0.003-0-0.007-0-0.011-0-0.107 0-0.206 0.030-0.291 0.081l0.002-0.001c-0.030 0.018-0.056 0.038-0.080 0.060l0-0-0.040 0.030-4.7 5.15-4.33-4.26 2.84-2.82c0.093-0.095 0.151-0.226 0.151-0.37 0-0.293-0.237-0.53-0.53-0.53-0 0-0 0-0.001 0h-2.22l0.030-1.6 3.1 0.020c1.264 1.296 3.027 2.099 4.977 2.099 0.454 0 0.897-0.043 1.326-0.126l-0.044 0.007c0.040 0.030 0.080 0.070 0.13 0.090l2.41 0.96 0.33 1.64-3-0.43zM20.020 18.57l-0.31-1.56 1.44-1.080 0.95 1.26-2.080 1.38zM23.77 15.74l-0.83 0.79-0.94-1.24 0.84-0.64c0.121-0.092 0.274-0.147 0.439-0.147 0.036 0 0.070 0.003 0.105 0.007l-0.004-0c0.352 0.051 0.619 0.351 0.619 0.713 0 0.203-0.084 0.386-0.219 0.517l-0 0z"></path>
<path fill="#212121" style="fill: var(--color5, #212121)" d="M13.6 18.54l-2.14-2.13c-0.096-0.096-0.229-0.155-0.375-0.155s-0.279 0.059-0.375 0.155v0l-2.15 2.13c-0.097 0.098-0.156 0.232-0.156 0.38s0.060 0.282 0.156 0.38l-0-0 2.15 2.13c0.097 0.094 0.229 0.151 0.375 0.151s0.278-0.058 0.375-0.152l-0 0 2.14-2.13c0.097-0.098 0.156-0.232 0.156-0.38s-0.060-0.282-0.156-0.38l0 0zM11.080 20.3l-1.38-1.38 1.38-1.38 1.39 1.38-1.39 1.38zM17.16 5.070l-0.25 1.040c0.070 0.010 1.73 0.45 1.73 2.15h1.070c0-2.020-1.66-2.97-2.55-3.19zM19.71 9.32h-1.070v1.070h1.070v-1.070z"></path>
</symbol>
<symbol id="icon-antenna" viewBox="0 0 32 32">
<path fill="#212121" style="fill: var(--color5, #212121)" d="M30.775 22.098l-8.443-8.503 0.937-4.617c0.242 0.091 0.498 0.142 0.759 0.146h0.005c0.006 0 0.014 0 0.022 0 1.192 0 2.158-0.966 2.158-2.158s-0.966-2.158-2.158-2.158c-1.192 0-2.158 0.966-2.158 2.158 0 0.259 0.046 0.507 0.129 0.737l-0.005-0.015-4.955 0.603-8.091-8.133c-0.097-0.098-0.231-0.159-0.379-0.16h-0c-0.137 0-0.274 0.055-0.37 0.155l-1.513 1.504c-0.21 0.21-0.21 0.549 0 0.754l0.814 0.823c-1.143 2.062-1.816 4.522-1.816 7.14 0 4.106 1.656 7.824 4.336 10.525l-0.001-0.001c0.046 0.046 0.091 0.073 0.146 0.101-0.032 0.183-0.050 0.366-0.050 0.549v6.185h-6.4c0 0 0 0 0 0-1.473 0-2.667 1.193-2.67 2.665v1.065c0 0.297 0.238 0.535 0.535 0.535h24.535c0.293 0 0.53-0.238 0.53-0.535v-1.065c-0.003-1.471-1.194-2.663-2.665-2.665h-6.4v-2.743c0.915 0.2 1.966 0.315 3.043 0.315 2.581 0 5.008-0.659 7.123-1.817l-0.077 0.039 0.818 0.823c0.096 0.101 0.233 0.16 0.375 0.16 0.137 0 0.274-0.059 0.375-0.155l1.509-1.509c0.21-0.206 0.21-0.544 0-0.75zM23.278 6.235c0.193-0.192 0.458-0.311 0.752-0.311 0.588 0 1.065 0.477 1.065 1.065s-0.476 1.064-1.063 1.065h-0c-0.001 0-0.001 0-0.002 0-0.588 0-1.065-0.477-1.065-1.065 0-0.297 0.122-0.566 0.318-0.759l0-0zM22.025 9.737l-0.599 2.944-1.175-1.179 1.774-1.765zM21.417 8.837l-1.92 1.906-1.486-1.49 3.406-0.416zM24.005 28.8c0.884 0 1.6 0.716 1.6 1.6v0 0.535h-23.465v-0.535c0-0.884 0.716-1.6 1.6-1.6v0h20.261zM16.539 26.665v1.070h-5.339v-1.070h5.335zM11.2 25.6v-4.055c0-1.294 1.198-2.345 2.665-2.345 1.472 0 2.67 1.051 2.67 2.345v4.055h-5.335zM17.6 23.904v-2.359c0-1.879-1.673-3.41-3.735-3.41-0.018-0-0.040-0-0.062-0-1.351 0-2.537 0.705-3.211 1.768l-0.009 0.016c-2.359-2.481-3.809-5.845-3.809-9.548 0-2.314 0.567-4.496 1.569-6.415l-0.036 0.077 18.606 18.711c-1.822 0.946-3.978 1.501-6.264 1.501-1.080 0-2.132-0.124-3.141-0.358l0.093 0.018zM28.891 23.218l-0.754-0.754-20.302-20.425 0.754-0.75 21.061 21.179-0.759 0.75z"></path>
<path fill="#2196f3" style="fill: var(--color4, #2196f3)" d="M13.874 20.265c-0.001 0-0.003 0-0.005 0-0.884 0-1.6 0.716-1.6 1.6 0 0.882 0.714 1.597 1.595 1.6h0.005c0.001 0 0.001 0 0.002 0 0.884 0 1.6-0.716 1.6-1.6s-0.715-1.599-1.598-1.6h-0zM14.249 22.245c-0.097 0.096-0.23 0.155-0.377 0.155-0.295 0-0.535-0.239-0.535-0.535s0.238-0.533 0.532-0.535h0c0.294 0.001 0.533 0.24 0.533 0.535 0 0.148-0.060 0.283-0.158 0.379l-0 0z"></path>
</symbol>
</defs>
</svg>
